<?xml version="1.0" encoding="UTF-8"?>
<svg width="100mm" height="100mm" version="1.1" viewBox="0 0 100 100" xmlns="http://www.w3.org/2000/svg">
<rect x="10" y="32.5" width="12.5" height="5" fill="#44c"/>
<rect x="52.5" y="77.5" width="5" height="12.5" fill="#44c"/>
<rect x="10" y="87.5" width="45" height="5" fill="#44c"/>
<rect x="7.5" y="35" width="5" height="55" fill="#44c"/>
<rect x="25" y="5" width="60" height="70" fill="#fff" stroke="#666" stroke-width="2.5"/>
<rect x="30" y="10" width="50" height="60" fill="#900"/>
<path d="m17.5 90a7.5 7.5 0 1 1 -15 0 7.5 7.5 0 1 1 15 0" fill="#007"/>
<path d="m17.5 35a7.5 7.5 0 1 1 -15 0 7.5 7.5 0 1 1 15 0" fill="#007"/>
<path d="m62.5 90a7.5 7.5 0 1 1 -15 0 7.5 7.5 0 1 1 15 0" fill="#007"/>
<path d="m15 35a5 5 0 1 1 -10 0 5 5 0 1 1 10 0" fill="#fff"/>
<path d="m15 90a5 5 0 1 1 -10 0 5 5 0 1 1 10 0" fill="#fff"/>
<path d="m60 90a5 5 0 1 1 -10 0 5 5 0 1 1 10 0" fill="#fff"/>
</svg>
