<?xml version="1.0" encoding="UTF-8"?>
<svg id="svg2" width="750" height="250" version="1.1" viewBox="0 0 750 250" xml:space="preserve" xmlns="http://www.w3.org/2000/svg" xmlns:cc="http://creativecommons.org/ns#" xmlns:dc="http://purl.org/dc/elements/1.1/" xmlns:rdf="http://www.w3.org/1999/02/22-rdf-syntax-ns#"><metadata id="metadata8"><rdf:RDF><cc:Work rdf:about=""><dc:format>image/svg+xml</dc:format><dc:type rdf:resource="http://purl.org/dc/dcmitype/StillImage"/><dc:title/></cc:Work></rdf:RDF></metadata><defs id="defs6"><clipPath id="clipPath52"><path id="path50" d="m1.1829e-5 0h793.8v446.52h-793.8z" clip-rule="evenodd"/></clipPath><clipPath id="clipPath64"><path id="path62" d="m1.1829e-5 0h793.8v446.52h-793.8z" clip-rule="evenodd"/></clipPath>
</defs><g id="g947" transform="translate(-36.416 -25.549)"><path id="path12" d="m231 155.72 74.853-34.08v17.04h226.29v-17.04l74.853 34.08-74.853 34.08v-17.04h-226.29v17.04z" fill="#b3b3b3" fill-rule="evenodd"/><g id="g914" transform="translate(0 -195.36)"><path id="path14" d="m178.21 305.88c11.44 0 20.707 20.307 20.707 45.36 0 25.052-9.2667 45.36-20.707 45.36h-90.107c-11.44 0-20.707-20.308-20.707-45.36 0-25.053 9.2667-45.36 20.707-45.36z" fill="#fff" fill-rule="evenodd"/><path id="path16" d="m178.21 305.88c-11.427 0-20.693 20.307-20.693 45.36 0 25.052 9.2667 45.36 20.693 45.36" fill="#fff" fill-rule="evenodd"/><path id="path18" d="m178.21 305.88c11.44 0 20.707 20.307 20.707 45.36 0 25.052-9.2667 45.36-20.707 45.36h-90.107c-11.44 0-20.707-20.308-20.707-45.36 0-25.053 9.2667-45.36 20.707-45.36z" fill="none" stroke="#000" stroke-linejoin="round" stroke-miterlimit="10" stroke-width="3.04"/><path id="path20" d="m178.21 305.88c-11.427 0-20.693 20.307-20.693 45.36 0 25.052 9.2667 45.36 20.693 45.36" fill="none" stroke="#000" stroke-linejoin="round" stroke-miterlimit="10" stroke-width="3.04"/><g id="g46" transform="matrix(1.3333 0 0 -1.3333 -117 486.24)"><g id="g48" clip-path="url(#clipPath52)"><text id="text56" transform="matrix(1,0,0,-1,144.48,96.648)" fill="#000000" font-family="ArialMT" font-size="18px"><tspan id="tspan54" x="0" y="0" font-family="'Gill Sans MT Pro'" font-size="18px" font-weight="500" style="font-feature-settings:normal;font-variant-caps:normal;font-variant-ligatures:normal;font-variant-numeric:normal">Storage</tspan></text>
</g></g></g><g id="g895" transform="translate(0 -195.36)"><path id="path30" d="m640.36 368.12h68v-68h-68z" fill="#fff" fill-rule="evenodd"/><path id="path32" d="m640.36 368.12h68v-68h-68z" fill="none" stroke="#000" stroke-miterlimit="10" stroke-width="3.04"/><path id="path34" d="m653.68 300.12v68" fill="none" stroke="#000" stroke-linejoin="round" stroke-miterlimit="10" stroke-width="3.04"/><path id="path36" d="m640.36 313.44h68" fill="none" stroke="#000" stroke-linejoin="round" stroke-miterlimit="10" stroke-width="3.04"/><path id="path38" d="m680.04 390.04h68v-68h-68z" fill="#fff" fill-rule="evenodd"/><path id="path40" d="m680.04 390.04h68v-68h-68z" fill="none" stroke="#000" stroke-miterlimit="10" stroke-width="3.04"/><path id="path42" d="m693.36 322.04v68" fill="none" stroke="#000" stroke-linejoin="round" stroke-miterlimit="10" stroke-width="3.04"/><path id="path44" d="m680.04 335.36h68" fill="none" stroke="#000" stroke-linejoin="round" stroke-miterlimit="10" stroke-width="3.04"/><g id="g58" transform="matrix(1.3333 0 0 -1.3333 -112 488.74)"><g id="g60" clip-path="url(#clipPath64)"><text id="text68" transform="matrix(1,0,0,-1,614.64,88.704)" fill="#000000" font-family="ArialMT" font-size="18px"><tspan id="tspan66" x="0" y="0" font-family="'Gill Sans MT Pro'" font-size="18px" font-weight="500" style="font-feature-settings:normal;font-variant-caps:normal;font-variant-ligatures:normal;font-variant-numeric:normal">UI</tspan></text>
</g></g></g><g id="g904" transform="translate(.35355 -192.18)"><path id="path22" d="m357.64 437.72h124.64v-160.03l-15.587-22.853h-109.05z" fill="#fff" fill-rule="evenodd"/><path id="path24" d="m466.69 254.84 4.04 22.853c3.9067-3.2667 3.76-1.4267 11.547 0z" fill="#fff" fill-rule="evenodd"/><path id="path26" d="m357.64 437.72h124.64v-160.03l-15.587-22.853h-109.05z" fill="none" stroke="#000" stroke-miterlimit="10" stroke-width="3.04"/><path id="path28" d="m466.69 254.84 4.04 22.853c3.9067-3.2667 3.76-1.4267 11.547 0z" fill="none" stroke="#000" stroke-linejoin="round" stroke-miterlimit="10" stroke-width="3.04"/><g id="g70" transform="matrix(1.3333 0 0 -1.3333 -111 482.24)"><text id="text80" transform="scale(1,-1)" x="368.57001" y="-97.127998" fill="#000000" font-family="'Gill Sans MT Pro'" font-size="18px" font-weight="500" style="font-feature-settings:normal;font-variant-caps:normal;font-variant-ligatures:normal;font-variant-numeric:normal"><tspan id="tspan78" x="368.57001" y="-97.127998" font-family="'Gill Sans MT Pro'" font-size="18px" font-weight="500" style="font-feature-settings:normal;font-variant-caps:normal;font-variant-ligatures:normal;font-variant-numeric:normal">Pinafore</tspan></text>
</g></g></g></svg>
